<?xml version="1.0" standalone="no"?>
<!DOCTYPE svg PUBLIC "-//W3C//DTD SVG 20010904//EN"
 "http://www.w3.org/TR/2001/REC-SVG-20010904/DTD/svg10.dtd">
<svg version="1.0" xmlns="http://www.w3.org/2000/svg"
 width="234.000000pt" height="234.000000pt" viewBox="0 0 234.000000 234.000000"
 preserveAspectRatio="xMidYMid meet">
<metadata>
Created by potrace 1.11, written by Peter Selinger 2001-2013
</metadata>
<g transform="translate(0.000000,234.000000) scale(0.100000,-0.100000)"
fill="#000000" stroke="none">
<path d="M254 1599 c-4 -6 42 -61 109 -128 l116 -116 -109 -115 c-60 -63 -110
-121 -110 -127 0 -10 61 -13 274 -13 l273 0 117 124 c64 68 116 128 116 133 0
5 -56 64 -123 131 l-124 122 -266 0 c-184 0 -268 -3 -273 -11z m636 -134 l115
-115 -110 -110 -110 -110 -240 0 -240 0 108 108 c59 59 107 111 107 116 0 5
-48 58 -107 117 l-107 109 235 0 234 0 115 -115z"/>
<path d="M620 1440 c-15 -15 -20 -33 -20 -78 0 -84 16 -102 90 -102 49 0 61 4
74 22 9 12 16 26 16 30 0 14 -38 8 -44 -7 -3 -10 -19 -15 -46 -15 -34 0 -42 4
-50 26 -6 14 -10 27 -10 30 0 2 34 4 76 4 l77 0 -7 43 c-4 23 -14 48 -23 55
-27 20 -110 15 -133 -8z m118 -37 c3 -22 0 -23 -53 -23 -31 0 -54 3 -52 8 2 4
7 15 10 25 5 14 16 18 49 15 36 -2 44 -7 46 -25z"/>
<path d="M60 1556 c0 -8 50 -56 110 -106 61 -51 110 -96 110 -99 -1 -3 -50
-46 -110 -96 -102 -84 -128 -115 -97 -115 20 0 248 200 245 215 -3 16 -235
215 -249 215 -5 0 -9 -6 -9 -14z"/>
<path d="M1165 1485 c-23 -22 -25 -32 -25 -109 0 -98 11 -130 51 -147 46 -18
138 -7 161 21 25 31 24 80 -1 80 -15 0 -21 -8 -23 -32 -3 -33 -4 -33 -61 -36
-82 -4 -87 2 -87 109 0 87 1 90 26 99 35 14 98 12 112 -2 7 -7 12 -20 12 -30
0 -11 7 -18 20 -18 23 0 24 7 9 47 -14 38 -24 43 -102 43 -59 0 -71 -3 -92
-25z"/>
<path d="M2110 1370 c0 -133 1 -140 20 -140 18 0 20 7 20 73 0 80 9 97 52 97
37 0 48 -24 48 -104 0 -52 3 -66 15 -66 12 0 15 16 15 85 0 79 -2 86 -25 101
-18 11 -38 15 -65 11 l-40 -5 0 44 c0 37 -3 44 -20 44 -19 0 -20 -7 -20 -140z"/>
<path d="M1690 1450 c0 -11 -7 -20 -15 -20 -8 0 -15 -7 -15 -15 0 -8 7 -15 15
-15 12 0 15 -16 15 -80 0 -68 3 -81 19 -90 44 -23 101 5 101 50 0 29 -38 27
-42 -2 -2 -15 -10 -23 -23 -23 -18 0 -20 7 -20 70 l0 70 38 3 c53 5 51 32 -3
32 -33 0 -40 3 -40 20 0 11 -7 20 -15 20 -8 0 -15 -9 -15 -20z"/>
<path d="M1458 1419 c-19 -11 -25 -49 -7 -49 6 0 17 7 25 15 31 30 94 13 94
-26 0 -13 -8 -15 -50 -11 -62 6 -90 -14 -90 -63 0 -55 17 -61 148 -56 21 1 22
5 22 86 0 75 -2 85 -22 99 -25 18 -94 21 -120 5z m96 -105 c20 -8 21 -38 2
-53 -8 -7 -30 -11 -48 -9 -33 3 -46 23 -34 54 5 14 51 19 80 8z"/>
<path d="M1886 1409 c-23 -18 -26 -27 -26 -83 0 -51 4 -66 21 -82 25 -23 107
-26 132 -5 21 17 22 61 2 61 -8 0 -15 -9 -15 -20 0 -23 -36 -36 -74 -26 -17 4
-25 15 -30 40 -7 39 1 87 18 98 22 15 66 8 78 -12 16 -26 38 -26 38 -1 0 48
-95 68 -144 30z"/>
<path d="M1160 915 c0 -122 2 -145 15 -145 12 0 15 13 15 55 l0 55 70 0 c62 0
74 3 95 25 37 36 31 120 -9 147 -6 4 -50 8 -98 8 l-88 0 0 -145z m178 103 c15
-15 16 -63 2 -89 -9 -16 -22 -19 -80 -19 l-70 0 0 60 0 60 68 0 c40 0 73 -5
80 -12z"/>
<path d="M1460 915 c0 -122 2 -145 15 -145 13 0 15 23 15 145 0 122 -2 145
-15 145 -13 0 -15 -23 -15 -145z"/>
<path d="M1580 915 l0 -145 90 0 c73 0 90 3 90 15 0 12 -15 15 -75 15 l-75 0
0 130 c0 109 -2 130 -15 130 -13 0 -15 -23 -15 -145z"/>
<path d="M1836 1039 c-25 -20 -26 -24 -26 -124 0 -100 1 -104 26 -124 41 -32
136 -30 169 4 23 22 25 31 25 124 0 96 -1 100 -26 120 -20 16 -41 21 -84 21
-43 0 -64 -5 -84 -21z m152 -21 c16 -16 16 -190 0 -206 -16 -16 -120 -16 -136
0 -8 8 -12 46 -12 103 0 57 4 95 12 103 7 7 37 12 68 12 31 0 61 -5 68 -12z"/>
<path d="M2090 1045 c0 -11 12 -15 45 -15 l45 0 0 -130 c0 -109 2 -130 15
-130 13 0 15 21 15 130 l0 130 45 0 c33 0 45 4 45 15 0 12 -18 15 -105 15 -87
0 -105 -3 -105 -15z"/>
</g>
</svg>
