<svg xmlns="http://www.w3.org/2000/svg" width="605.7272737518815" height="465.72727895374123"><rect id="backgroundrect" width="100%" height="100%" x="0" y="0" fill="none" stroke="none"/>
 
<g class="currentLayer" style=""><title>Layer 1</title><path fill="#e5f4f2" d="m440.0334799194336,457.0126080322266 c-1.0064,-3.2935 -7.6961,-25.767 -14.866,-49.942 l-13.036,-43.953 l15.017,-18.218 c8.2591,-10.02 15.017,-20.96 15.017,-24.312 c0,-10.416 -16.015,-6.3478 -33.353,8.472 c-18.872,16.131 -38.505,18.992 -38.505,5.6126000000000005 c0,-4.7105 6.3796,-16.028 14.177,-25.15 s14.265,-18.203 14.372,-20.179 c0.4267,-7.8747 -13.157,-2.8972 -24.121,8.8386 c-18.186,19.467 -34.97,26.742 -44.916,19.469 c-7.4806,-5.47 -6.2386,-8.2221 13.737,-30.44 c19.703,-21.914 26.895,-34.995 19.243,-34.995 c-1.4951,0 -14.627,9.7009 -29.182,21.558 c-28.46,23.183 -51.906,28.656 -57.731,13.476 c-2.2091,-5.7567 3.3469,-13.756 19.313,-27.805 c21.3,-18.743 28.274,-31.181 17.482,-31.181 c-2.7123,0 -15.663,8.4829 -28.78,18.851 c-28.185,22.279 -40.884,27.142 -50.353,19.283 c-10.603,-8.7997 -8.8788,-12.714 16.997,-38.59 c13.174,-13.174 23.953,-26.006 23.953,-28.515 c0,-10.18 -16.886,-3.4654 -36.308,14.437 c-21.068,19.42 -39.491,27.305 -52.307,22.387 c-11.251,-4.3172 -8.7965,-10.118 14.361,-33.945 c11.857,-12.2 21.558,-25.21 21.558,-28.911 c0,-8.9913 -18.682,-21.645 -31.957,-21.645 c-8.9598,0 -11.97,4.6593 -18.849,29.176 c-10.836,38.62 -19.085,41.824 -56.176,21.82 c-53.513,-28.861 -113.38,-96 -113.38,-127.15 c0,-12.337 22.889,-30.899 64.212,-52.073 c31.903,-16.347 37.272,-17.537 87.27,-19.349 c45.958,-1.665 56.322,-0.5826700000000001 75.451,7.8790000000000004 c12.196,5.3950000000000005 22.175,12.752 22.175,16.349 s-7.5451,19.069 -16.767,34.384 s-16.767,30.848 -16.767,34.52 c0,6.2501 26.452,25.64 35.032,25.679 c2.1414,0.009870000000000004 10.174,-13.833 17.849,-30.761 c13.364,-29.473 26.445,-41.121 38.096,-33.92 c8.7897,5.4324 5.3534,49.001 -5.6512,71.652 c-10.639,21.898 -9.4976,32.411 2.4431000000000003,22.501 c3.6089,-2.9951 10.343,-13.832 14.965,-24.082 c8.5481,-18.956 26.525,-32.904 35.366,-27.44 c11.833,7.3133 11.065,31.378 -1.925,60.324 c-14.23,31.709 -11.709,44.111 4.5054,22.158 c21.163,-28.653 26.253,-33.977 29.446,-30.797 c5.6212,5.5987 -21.411,49.561 -50.907,82.789 c-15.51,17.472 -28.2,32.743 -28.2,33.934 c0,7.3655 13.54,-1.0352 36.181,-22.449 c25.569,-24.182 50.049,-65.752 50.049,-84.989 c0,-5.2773 2.171,-10.937 4.8244,-12.577 c9.3128,-5.7557 11.022,13.595 3.0904,34.995 c-9.8475,26.57 -7.4402,30.358 6.936,10.913 c13.262,-17.938 20.188,-18.584 27.487,-2.5647 c4.5937,10.082 3.9,15.42 -4.0216,30.948 c-17.237,33.787 -8.8027,46.984 10.743,16.81 c5.9525,-9.1892 13.372,-16.734 16.488,-16.767 c9.488,-0.09931000000000002 12.531,19.418 6.0769,38.975 c-3.3581,10.175 -4.562,20.044 -2.6753,21.931 c4.6529,4.6529 12.327,-8.2855 12.417,-20.935 c0.06702000000000002,-9.3849 3.2781000000000002,-10.497 37.2,-12.884 c20.42,-1.4367 44.105,-4.0613 52.635,-5.8325 c20.342,-4.2242 39.583,0.8721700000000001 39.583,10.484 c0,4.2143 -21.72,29.398 -48.267,55.963 c-41.693,41.722 -51.236,54.404 -70.064,93.107 c-21.609,44.419 -31.38,58.66 -40.249,58.66 c-2.5293,0 -5.4222,-2.6947 -6.4285,-5.9882 zm28.994,-54.248 c2.7175000000000002,-10.822 -19.478,-40.365 -30.326,-40.365 c-7.7746,0 -7.7179,0.9482900000000001 1.8226,30.496 c4.3679,13.528 8.8334,27.829 9.9233,31.782 c1.6038000000000001,5.8159 3.3259,5.3592 9.0333,-2.3953 c3.8784,-5.2696 8.1745,-14.052 9.5467,-19.517 zm16.251,-37.802 c0,-3.8595 -4.3115,-9.3247 -9.5811,-12.145 c-10.785,-5.7722 -11.821,-3.5552 -4.622,9.896 c5.8478,10.927 14.203,12.25 14.203,2.2489 zm19.162,-31.708 c0,-5.6917 -24.159,-15.366 -28.21,-11.297 c-4.1068,4.1252 18.674,21.817 23.919,18.575 c2.3604000000000003,-1.4588 4.2916,-4.7342 4.2916,-7.2787 zm27.412,-21.947 c1.8646000000000003,-5.6006 -3.1336,-7.813 -29.808,-13.194 l-14.372,-2.8992 l14.372,12.085 c14.703,12.363 26.498,13.949 29.808,4.0086 zm-87.455,-36.668 c7.9795,-13.015 7.9588,-13.297 -0.57008,-7.7419 c-4.867900000000001,3.1704 -16.233,15.716 -25.257,27.878 l-16.406,22.114 l16.976,-14.372 c9.3369,-7.9044 20.702,-20.45 25.257,-27.878 zm119.34,-1.5336 c8.8032,-12.077 8.8032,-12.289 0,-9.823 c-4.9488,1.3863 -21.932,4.1175 -37.741,6.0693 l-28.743,3.5486 l19.162,6.0568 c28.327,8.9536 37.343,7.8387 47.322,-5.8517 zm-173.77,-3.0932 c8.7939,-6.697900000000001 30.054,-46.328 26.669,-49.714 c-2.2623,-2.2623 -18.773,18.309 -34.269,42.696 c-8.7796,13.818 -5.4112,16.928 7.6004000000000005,7.0173 zm-82.558,-63.331 c14.6,-16.629 39.015,-60.638 45.83,-82.613 c2.3916,-7.7116 1.3933,-10.779 -3.5082,-10.779 c-3.7681,0 -13.492,13.473 -21.609,29.941 s-23.503,41.648 -34.192,55.957 s-19.433,27.858 -19.433,30.11 c0,7.0811 17.239,-4.7648 32.913,-22.616 zm-49.047,-31.895 c15.948,-16.991 44.878,-72.619 44.878,-86.293 c0,-14.23 -9.3961,-14.64 -14.7,-0.6423200000000001 c-10.418,27.492 -33.997,70.035 -53.294,96.157 c-18.338,24.823 -18.797,26.137 -5.8885000000000005,16.844 c7.7007,-5.5438 20.753,-17.273 29.005,-26.066 zm-103.92,-4.3038 c4.1384,-11.695 12.421,-29.886 18.406,-40.426 c27.724,-48.82 36.606,-63.389 47.708,-78.252 c15.391,-20.606 10.835,-24.99 -30.408,-29.259 c-37.871,-3.9198 -70.489,0.38445000000000007 -107.45,14.179 c-25.813,9.6346 -57.339,30.461 -52.523,34.697 c1.3174000000000001,1.1586 21.258,14.299 44.313,29.201 s41.917,28.974 41.917,31.27 s-3.1396,6.7814 -6.977,9.9661 c-5.6690000000000005,4.7048000000000005 -12.165,2.0753 -34.651,-14.027 c-30.056,-21.523 -40.112,-18.347 -17.584,5.5526 c17.937,19.029 78.813,61.996 84.942,59.953 c2.628,-0.8759500000000001 8.1641,-11.161 12.302,-22.856 zm-44.876,-79.092 c-4.1404,-4.1404 -7.5280000000000005,-10.752 -7.5280000000000005,-14.691 c0,-10.975 24.064,-40.058 33.144,-40.058 c21.484,0 27.092,34.361 8.4642,51.861 c-13.117,12.323 -23.745,13.223 -34.081,2.8881 zm131.4,50.36 c0,-2.4793000000000003 -2.1558,-4.5078 -4.7906,-4.5078 s-4.7906,3.3609 -4.7906,7.4686 s2.1558,6.1362 4.7906,4.5078 s4.7906,-4.9893 4.7906,-7.4686 zm-28.743,-16.767 c0,-1.1619000000000002 -2.1558,-2.1125 -4.7906,-2.1125 s-4.7906,2.283 -4.7906,5.0733 s2.1558,3.7409 4.7906,2.1125 s4.7906,-3.9114 4.7906,-5.0733 z" id="svg_1" class=""/></g></svg>